<svg width="130" height="130" viewBox="0 0 130 130" fill="none" xmlns="http://www.w3.org/2000/svg">
<mask id="mask0_369_1751" style="mask-type:alpha" maskUnits="userSpaceOnUse" x="0" y="0" width="130" height="130">
<circle cx="64.5552" cy="65.0476" r="63.6103" fill="#C4C4C4" stroke="#F8BB54" stroke-width="1.77931"/>
</mask>
<g mask="url(#mask0_369_1751)">
<path d="M-37.4292 27.5977C-37.4292 27.5977 -7.39423 22.0339 0.35517 2.56113C7.76642 -16.1057 38.2956 -21.1233 38.2956 -21.1233" stroke="#3B82F6" stroke-width="2" stroke-miterlimit="10"/>
<path d="M-37.4292 36.9569C-37.4292 36.9569 -0.58099 30.5354 8.91061 7.03286C17.9601 -15.4038 55.3804 -21.1233 55.3804 -21.1233" stroke="#3B82F6" stroke-width="2" stroke-miterlimit="10"/>
<path d="M-37.4292 46.3424C-37.4292 46.3424 6.20615 39.0369 17.44 11.5566C28.1539 -14.7277 72.4654 -21.1233 72.4654 -21.1233" stroke="#3B82F6" stroke-width="2" stroke-miterlimit="10"/>
<path d="M-37.4292 55.7018C-37.4292 55.7018 13.0193 47.5384 25.9955 16.0284C38.3476 -14.0257 89.5502 -21.1233 89.5502 -21.1233" stroke="#3B82F6" stroke-width="2" stroke-miterlimit="10"/>
<path d="M-37.4292 65.0613C-37.4292 65.0613 19.8325 56.0399 34.5509 20.526C48.5412 -13.3238 106.609 -21.1233 106.609 -21.1233" stroke="#3B82F6" stroke-width="2" stroke-miterlimit="10"/>
<path d="M-37.4292 74.4466C-37.4292 74.4466 26.6196 64.5672 43.0804 25.0236C58.7609 -12.6479 123.694 -21.1233 123.694 -21.1233" stroke="#3B82F6" stroke-width="2" stroke-miterlimit="10"/>
<path d="M-37.4292 83.806C-37.4292 83.806 33.4327 73.0426 51.6358 29.5215C68.9548 -11.9459 140.779 -21.1233 140.779 -21.1233" stroke="#3B82F6" stroke-width="2" stroke-miterlimit="10"/>
<path d="M-37.4292 93.1654C-37.4292 93.1654 40.246 81.5441 60.1652 33.9932C79.1484 -11.244 157.864 -21.1233 157.864 -21.1233" stroke="#3B82F6" stroke-width="2" stroke-miterlimit="10"/>
<path d="M-37.4292 102.551C-37.4292 102.551 47.033 90.0717 68.7207 38.5168C89.3422 -10.5681 174.923 -21.1233 174.923 -21.1233" stroke="#3B82F6" stroke-width="2" stroke-miterlimit="10"/>
<path d="M-37.4292 111.91C-37.4292 111.91 53.8462 98.5732 77.2502 43.0146C99.5359 -9.86612 192.008 -21.1233 192.008 -21.1233" stroke="#3B82F6" stroke-width="2" stroke-miterlimit="10"/>
<path d="M-37.4292 121.295C-37.4292 121.295 60.6593 107.074 85.8057 47.5123C109.73 -9.16416 209.092 -21.1233 209.092 -21.1233" stroke="#3B82F6" stroke-width="2" stroke-miterlimit="10"/>
<path d="M-37.4292 130.655C-37.4292 130.655 67.4465 115.576 94.335 52.0101C119.923 -8.48809 226.177 -21.1233 226.177 -21.1233" stroke="#3B82F6" stroke-width="2" stroke-miterlimit="10"/>
<path d="M-37.4292 140.014C-37.4292 140.014 74.2596 124.078 102.89 56.4817C130.117 -7.78613 243.262 -21.1233 243.262 -21.1233" stroke="#3B82F6" stroke-width="2" stroke-miterlimit="10"/>
<path d="M-37.4292 149.399C-37.4292 149.399 81.0729 132.579 111.446 61.0054C140.311 -7.08416 260.321 -21.1233 260.321 -21.1233" stroke="#3B82F6" stroke-width="2" stroke-miterlimit="10"/>
<path d="M-37.4292 158.759C-37.4292 158.759 87.8599 141.081 119.975 65.4772C150.505 -6.40828 277.406 -21.1233 277.406 -21.1233" stroke="#3B82F6" stroke-width="2" stroke-miterlimit="10"/>
<path d="M-37.4292 168.119C-37.4292 168.119 94.6732 149.582 128.531 69.9748C160.698 -5.70631 294.491 -21.1233 294.491 -21.1233" stroke="#3B82F6" stroke-width="2" stroke-miterlimit="10"/>
<path d="M-37.4292 177.505C-37.4292 177.505 101.486 158.109 137.06 74.4727C170.892 -5.00434 311.576 -21.1233 311.576 -21.1233" stroke="#3B82F6" stroke-width="2" stroke-miterlimit="10"/>
<path d="M-37.4292 186.863C-37.4292 186.863 108.273 166.585 145.616 78.9703C181.086 -4.32848 328.635 -21.1233 328.635 -21.1233" stroke="#3B82F6" stroke-width="2" stroke-miterlimit="10"/>
</g>
</svg>
