<svg width="22" height="14" viewBox="0 0 22 14" fill="none" xmlns="http://www.w3.org/2000/svg">
<path fillRule="evenodd" clipRule="evenodd" d="M14.0555 13.2273C13.969 13.141 13.9004 13.0386 13.8536 12.9258C13.8068 12.813 13.7827 12.6921 13.7827 12.57C13.7827 12.4479 13.8068 12.3269 13.8536 12.2142C13.9004 12.1014 13.969 11.9989 14.0555 11.9127L18.9702 6.99976L14.0555 2.08683C13.8811 1.9125 13.7832 1.67607 13.7832 1.42954C13.7832 1.18301 13.8811 0.946579 14.0555 0.772256C14.2298 0.597933 14.4662 0.5 14.7127 0.5C14.9593 0.5 15.1957 0.597933 15.37 0.772256L20.9402 6.34247C21.0267 6.42871 21.0953 6.53116 21.1421 6.64394C21.1889 6.75673 21.213 6.87764 21.213 6.99976C21.213 7.12187 21.1889 7.24278 21.1421 7.35557C21.0953 7.46836 21.0267 7.5708 20.9402 7.65704L15.37 13.2273C15.2838 13.3137 15.1813 13.3823 15.0686 13.4291C14.9558 13.4759 14.8349 13.5 14.7127 13.5C14.5906 13.5 14.4697 13.4759 14.3569 13.4291C14.2441 13.3823 14.1417 13.3137 14.0555 13.2273Z" fill="white"/>
<path fillRule="evenodd" clipRule="evenodd" d="M0.787109 6.99985C0.787109 6.75363 0.88492 6.5175 1.05902 6.3434C1.23313 6.16929 1.46926 6.07148 1.71548 6.07148L18.4261 6.07148C18.6723 6.07148 18.9085 6.16929 19.0826 6.3434C19.2567 6.5175 19.3545 6.75363 19.3545 6.99985C19.3545 7.24607 19.2567 7.48221 19.0826 7.65631C18.9085 7.83041 18.6723 7.92822 18.4261 7.92822L1.71548 7.92822C1.46926 7.92822 1.23313 7.83041 1.05902 7.65631C0.88492 7.48221 0.787109 7.24607 0.787109 6.99985Z" fill="white"/>
</svg>
