<svg width="130" height="129" viewBox="0 0 130 129" fill="none" xmlns="http://www.w3.org/2000/svg">
<mask id="mask0_455_1163" style="mask-type:alpha" maskUnits="userSpaceOnUse" x="0" y="0" width="130" height="129">
<circle cx="65.0547" cy="64.5" r="63.6103" fill="#C4C4C4" stroke="#F8BB54" stroke-width="1.77931"/>
</mask>
<g mask="url(#mask0_455_1163)">
<path d="M-36.9297 27.0501C-36.9297 27.0501 -6.89472 21.4863 0.854682 2.01352C8.26593 -16.6533 38.7951 -21.6709 38.7951 -21.6709" stroke="#F59E0B" stroke-width="2" stroke-miterlimit="10"/>
<path d="M-36.9297 36.4093C-36.9297 36.4093 -0.0814786 29.9878 9.41012 6.48526C18.4596 -15.9514 55.8799 -21.6709 55.8799 -21.6709" stroke="#F59E0B" stroke-width="2" stroke-miterlimit="10"/>
<path d="M-36.9297 45.7948C-36.9297 45.7948 6.70566 38.4893 17.9396 11.009C28.6534 -15.2753 72.9649 -21.6709 72.9649 -21.6709" stroke="#F59E0B" stroke-width="2" stroke-miterlimit="10"/>
<path d="M-36.9297 55.1542C-36.9297 55.1542 13.5188 46.9908 26.495 15.4808C38.8471 -14.5733 90.0497 -21.6709 90.0497 -21.6709" stroke="#F59E0B" stroke-width="2" stroke-miterlimit="10"/>
<path d="M-36.9297 64.5136C-36.9297 64.5136 20.332 55.4923 35.0504 19.9784C49.0407 -13.8714 107.109 -21.6709 107.109 -21.6709" stroke="#F59E0B" stroke-width="2" stroke-miterlimit="10"/>
<path d="M-36.9297 73.899C-36.9297 73.899 27.1191 64.0196 43.5799 24.476C59.2605 -13.1955 124.193 -21.6709 124.193 -21.6709" stroke="#F59E0B" stroke-width="2" stroke-miterlimit="10"/>
<path d="M-36.9297 83.2584C-36.9297 83.2584 33.9322 72.495 52.1354 28.9739C69.4543 -12.4935 141.278 -21.6709 141.278 -21.6709" stroke="#F59E0B" stroke-width="2" stroke-miterlimit="10"/>
<path d="M-36.9297 92.6178C-36.9297 92.6178 40.7455 80.9965 60.6647 33.4456C79.6479 -11.7916 158.363 -21.6709 158.363 -21.6709" stroke="#F59E0B" stroke-width="2" stroke-miterlimit="10"/>
<path d="M-36.9297 102.003C-36.9297 102.003 47.5325 89.5241 69.2202 37.9692C89.8417 -11.1157 175.422 -21.6709 175.422 -21.6709" stroke="#F59E0B" stroke-width="2" stroke-miterlimit="10"/>
<path d="M-36.9297 111.362C-36.9297 111.362 54.3458 98.0256 77.7497 42.467C100.035 -10.4137 192.507 -21.6709 192.507 -21.6709" stroke="#F59E0B" stroke-width="2" stroke-miterlimit="10"/>
<path d="M-36.9297 120.747C-36.9297 120.747 61.1588 106.527 86.3052 46.9647C110.229 -9.71177 209.592 -21.6709 209.592 -21.6709" stroke="#F59E0B" stroke-width="2" stroke-miterlimit="10"/>
<path d="M-36.9297 130.108C-36.9297 130.108 67.946 115.029 94.8345 51.4625C120.423 -9.0357 226.676 -21.6709 226.676 -21.6709" stroke="#F59E0B" stroke-width="2" stroke-miterlimit="10"/>
<path d="M-36.9297 139.466C-36.9297 139.466 74.7591 123.53 103.39 55.9341C130.617 -8.33373 243.761 -21.6709 243.761 -21.6709" stroke="#F59E0B" stroke-width="2" stroke-miterlimit="10"/>
<path d="M-36.9297 148.851C-36.9297 148.851 81.5724 132.032 111.945 60.4578C140.81 -7.63176 260.821 -21.6709 260.821 -21.6709" stroke="#F59E0B" stroke-width="2" stroke-miterlimit="10"/>
<path d="M-36.9297 158.212C-36.9297 158.212 88.3594 140.533 120.475 64.9296C151.004 -6.95589 277.905 -21.6709 277.905 -21.6709" stroke="#F59E0B" stroke-width="2" stroke-miterlimit="10"/>
<path d="M-36.9297 167.572C-36.9297 167.572 95.1727 149.034 129.03 69.4272C161.198 -6.25392 294.99 -21.6709 294.99 -21.6709" stroke="#F59E0B" stroke-width="2" stroke-miterlimit="10"/>
<path d="M-36.9297 176.957C-36.9297 176.957 101.986 157.561 137.56 73.9251C171.391 -5.55195 312.075 -21.6709 312.075 -21.6709" stroke="#F59E0B" stroke-width="2" stroke-miterlimit="10"/>
<path d="M-36.9297 186.316C-36.9297 186.316 108.773 166.037 146.115 78.4227C181.585 -4.87609 329.135 -21.6709 329.135 -21.6709" stroke="#F59E0B" stroke-width="2" stroke-miterlimit="10"/>
</g>
</svg>
