<svg width="150" height="91" viewBox="0 0 150 91" fill="none" xmlns="http://www.w3.org/2000/svg">
<g clip-path="url(#clip0_455_1127)">
<path d="M146.805 90.9099C148.263 90.9099 149.445 89.7279 149.445 88.2699C149.445 86.8119 148.263 85.6299 146.805 85.6299C145.347 85.6299 144.165 86.8119 144.165 88.2699C144.165 89.7279 145.347 90.9099 146.805 90.9099Z" fill="#3B82F6"/>
<path d="M122.865 90.9099C124.323 90.9099 125.505 89.7279 125.505 88.2699C125.505 86.8119 124.323 85.6299 122.865 85.6299C121.407 85.6299 120.225 86.8119 120.225 88.2699C120.225 89.7279 121.407 90.9099 122.865 90.9099Z" fill="#3B82F6"/>
<path d="M98.9349 90.9099C99.4595 90.9119 99.9728 90.7581 100.41 90.4682C100.847 90.1782 101.188 89.7649 101.39 89.2809C101.592 88.7969 101.646 88.2637 101.545 87.749C101.444 87.2343 101.193 86.7612 100.822 86.3896C100.452 86.018 99.98 85.7646 99.4657 85.6615C98.9514 85.5585 98.418 85.6104 97.9332 85.8106C97.4484 86.0109 97.0339 86.3506 96.7423 86.7866C96.4507 87.2226 96.2949 87.7353 96.2949 88.2598C96.2949 88.9609 96.5728 89.6335 97.0676 90.1301C97.5624 90.6268 98.2338 90.9072 98.9349 90.9099V90.9099Z" fill="#3B82F6"/>
<path d="M75.0045 90.9099C75.5286 90.9099 76.041 90.7545 76.4768 90.4633C76.9126 90.1721 77.2522 89.7582 77.4528 89.274C77.6533 88.7898 77.7058 88.2569 77.6035 87.7429C77.5013 87.2288 77.2489 86.7567 76.8783 86.3861C76.5077 86.0155 76.0355 85.763 75.5215 85.6608C75.0074 85.5585 74.4746 85.611 73.9904 85.8116C73.5061 86.0122 73.0923 86.3518 72.8011 86.7876C72.51 87.2234 72.3545 87.7357 72.3545 88.2598C72.3545 88.6078 72.423 88.9525 72.5562 89.274C72.6893 89.5955 72.8845 89.8876 73.1306 90.1337C73.3767 90.3798 73.6688 90.575 73.9904 90.7082C74.3119 90.8414 74.6565 90.9099 75.0045 90.9099V90.9099Z" fill="#3B82F6"/>
<path d="M51.0648 90.9099C52.5228 90.9099 53.7048 89.7279 53.7048 88.2699C53.7048 86.8119 52.5228 85.6299 51.0648 85.6299C49.6068 85.6299 48.4248 86.8119 48.4248 88.2699C48.4248 89.7279 49.6068 90.9099 51.0648 90.9099Z" fill="#3B82F6"/>
<path d="M28.1448 90.5957C29.4933 90.0413 30.137 88.4986 29.5826 87.1501C29.0281 85.8016 27.4855 85.158 26.137 85.7124C24.7885 86.2668 24.1448 87.8094 24.6992 89.1579C25.2536 90.5064 26.7963 91.1502 28.1448 90.5957Z" fill="#3B82F6"/>
<path d="M3.20485 85.6602C2.67989 85.6582 2.16622 85.8122 1.7289 86.1026C1.29158 86.393 0.950366 86.8068 0.748555 87.2915C0.546745 87.7761 0.493425 88.3097 0.595357 88.8247C0.697289 89.3397 0.949855 89.8128 1.32106 90.184C1.69228 90.5552 2.16534 90.8078 2.68032 90.9097C3.1953 91.0116 3.72901 90.9583 4.21364 90.7565C4.69827 90.5547 5.11206 90.2135 5.40249 89.7762C5.69291 89.3389 5.84685 88.8252 5.84487 88.3002C5.84223 87.6008 5.56327 86.9308 5.06875 86.4363C4.57422 85.9418 3.90421 85.6628 3.20485 85.6602V85.6602Z" fill="#3B82F6"/>
<path d="M146.805 69.5002C148.263 69.5002 149.445 68.3182 149.445 66.8602C149.445 65.4022 148.263 64.2202 146.805 64.2202C145.347 64.2202 144.165 65.4022 144.165 66.8602C144.165 68.3182 145.347 69.5002 146.805 69.5002Z" fill="#3B82F6"/>
<path d="M122.865 69.5002C124.323 69.5002 125.505 68.3182 125.505 66.8602C125.505 65.4022 124.323 64.2202 122.865 64.2202C121.407 64.2202 120.225 65.4022 120.225 66.8602C120.225 68.3182 121.407 69.5002 122.865 69.5002Z" fill="#3B82F6"/>
<path d="M98.935 69.5002C99.4599 69.5022 99.9737 69.3482 100.411 69.0578C100.848 68.7673 101.19 68.3535 101.391 67.8689C101.593 67.3843 101.647 66.8506 101.545 66.3357C101.443 65.8207 101.19 65.3475 100.819 64.9763C100.448 64.6051 99.9745 64.3526 99.4595 64.2506C98.9445 64.1487 98.4109 64.202 97.9263 64.4038C97.4417 64.6056 97.0279 64.9469 96.7374 65.3842C96.447 65.8215 96.293 66.3352 96.2949 66.8602C96.2976 67.5595 96.5767 68.2295 97.0712 68.724C97.5657 69.2185 98.2356 69.4976 98.935 69.5002V69.5002Z" fill="#3B82F6"/>
<path d="M75.0045 69.5002C75.5291 69.5002 76.0418 69.3445 76.4778 69.0529C76.9138 68.7612 77.2535 68.3468 77.4538 67.862C77.654 67.3772 77.7059 66.8438 77.6028 66.3295C77.4997 65.8152 77.2464 65.343 76.8748 64.9728C76.5032 64.6026 76.03 64.351 75.5153 64.2499C75.0006 64.1488 74.4675 64.2027 73.9834 64.4048C73.4994 64.6069 73.0863 64.9481 72.7963 65.3852C72.5063 65.8223 72.3525 66.3356 72.3545 66.8602C72.3545 67.2077 72.4231 67.5518 72.5564 67.8728C72.6897 68.1937 72.885 68.4852 73.1312 68.7305C73.3775 68.9758 73.6697 69.17 73.9911 69.3021C74.3126 69.4342 74.657 69.5015 75.0045 69.5002V69.5002Z" fill="#3B82F6"/>
<path d="M51.0648 69.5002C52.5228 69.5002 53.7048 68.3182 53.7048 66.8602C53.7048 65.4022 52.5228 64.2202 51.0648 64.2202C49.6068 64.2202 48.4248 65.4022 48.4248 66.8602C48.4248 68.3182 49.6068 69.5002 51.0648 69.5002Z" fill="#3B82F6"/>
<path d="M28.1477 69.193C29.4962 68.6385 30.14 67.0959 29.5855 65.7474C29.0311 64.3989 27.4884 63.7551 26.1399 64.3096C24.7914 64.864 24.1477 66.4067 24.7021 67.7552C25.2566 69.1037 26.7992 69.7474 28.1477 69.193Z" fill="#3B82F6"/>
<path d="M3.20473 69.5002C3.72928 69.5002 4.24199 69.3445 4.678 69.0529C5.114 68.7612 5.45367 68.3468 5.65395 67.862C5.85422 67.3772 5.90618 66.8438 5.80312 66.3295C5.70006 65.8152 5.44658 65.343 5.07497 64.9728C4.70336 64.6026 4.2303 64.351 3.7156 64.2499C3.20089 64.1488 2.66778 64.2027 2.18373 64.4048C1.69969 64.6069 1.28646 64.9481 0.996479 65.3852C0.706499 65.8223 0.552727 66.3356 0.554706 66.8602C0.554704 67.2077 0.623313 67.5518 0.756611 67.8728C0.889908 68.1937 1.08535 68.4852 1.33156 68.7305C1.57777 68.9758 1.86997 69.17 2.19143 69.3021C2.51288 69.4342 2.8572 69.5015 3.20473 69.5002Z" fill="#3B82F6"/>
<path d="M146.805 48.0901C148.263 48.0901 149.445 46.9081 149.445 45.4501C149.445 43.992 148.263 42.8101 146.805 42.8101C145.347 42.8101 144.165 43.992 144.165 45.4501C144.165 46.9081 145.347 48.0901 146.805 48.0901Z" fill="#3B82F6"/>
<path d="M122.865 48.0901C124.323 48.0901 125.505 46.9081 125.505 45.4501C125.505 43.992 124.323 42.8101 122.865 42.8101C121.407 42.8101 120.225 43.992 120.225 45.4501C120.225 46.9081 121.407 48.0901 122.865 48.0901Z" fill="#3B82F6"/>
<path d="M98.9349 48.0998C99.4595 48.1018 99.9728 47.9481 100.41 47.6581C100.847 47.3681 101.188 46.9549 101.39 46.4708C101.592 45.9868 101.646 45.4537 101.545 44.939C101.444 44.4243 101.193 43.9512 100.822 43.5795C100.452 43.2079 99.98 42.9545 99.4657 42.8515C98.9514 42.7484 98.418 42.8003 97.9332 43.0006C97.4484 43.2008 97.0339 43.5405 96.7423 43.9765C96.4507 44.4125 96.2949 44.9252 96.2949 45.4498C96.2949 46.1509 96.5728 46.8234 97.0676 47.3201C97.5624 47.8168 98.2338 48.0972 98.9349 48.0998V48.0998Z" fill="#3B82F6"/>
<path d="M75.0045 48.0998C75.5286 48.0998 76.041 47.9444 76.4768 47.6532C76.9126 47.362 77.2522 46.9482 77.4528 46.4639C77.6533 45.9797 77.7058 45.4469 77.6035 44.9328C77.5013 44.4188 77.2489 43.9465 76.8783 43.5759C76.5077 43.2053 76.0355 42.953 75.5215 42.8507C75.0074 42.7485 74.4746 42.801 73.9904 43.0015C73.5061 43.2021 73.0923 43.5418 72.8011 43.9776C72.51 44.4133 72.3545 44.9257 72.3545 45.4498C72.3545 45.7978 72.423 46.1424 72.5562 46.4639C72.6893 46.7855 72.8845 47.0775 73.1306 47.3236C73.3767 47.5697 73.6688 47.7649 73.9904 47.8981C74.3119 48.0313 74.6565 48.0998 75.0045 48.0998V48.0998Z" fill="#3B82F6"/>
<path d="M51.0648 48.0901C52.5228 48.0901 53.7048 46.9081 53.7048 45.4501C53.7048 43.992 52.5228 42.8101 51.0648 42.8101C49.6068 42.8101 48.4248 43.992 48.4248 45.4501C48.4248 46.9081 49.6068 48.0901 51.0648 48.0901Z" fill="#3B82F6"/>
<path d="M28.1458 47.7915C29.4943 47.2371 30.138 45.6944 29.5836 44.3459C29.0291 42.9974 27.4865 42.3538 26.138 42.9082C24.7895 43.4626 24.1457 45.0052 24.7002 46.3537C25.2546 47.7022 26.7973 48.346 28.1458 47.7915Z" fill="#3B82F6"/>
<path d="M3.20471 48.0998C3.72883 48.0998 4.24121 47.9444 4.677 47.6532C5.11279 47.362 5.45238 46.9482 5.65295 46.4639C5.85353 45.9797 5.90608 45.4469 5.80383 44.9328C5.70158 44.4188 5.44922 43.9465 5.07861 43.5759C4.708 43.2053 4.23573 42.953 3.72168 42.8507C3.20763 42.7485 2.6749 42.801 2.19067 43.0015C1.70645 43.2021 1.29253 43.5418 1.00134 43.9776C0.710157 44.4133 0.554688 44.9257 0.554688 45.4498C0.554688 46.1526 0.833961 46.8266 1.33093 47.3236C1.8279 47.8206 2.50189 48.0998 3.20471 48.0998V48.0998Z" fill="#3B82F6"/>
<path d="M146.805 26.6902C148.263 26.6902 149.445 25.5082 149.445 24.0502C149.445 22.5921 148.263 21.4102 146.805 21.4102C145.347 21.4102 144.165 22.5921 144.165 24.0502C144.165 25.5082 145.347 26.6902 146.805 26.6902Z" fill="#3B82F6"/>
<path d="M122.865 26.6902C124.323 26.6902 125.505 25.5082 125.505 24.0502C125.505 22.5921 124.323 21.4102 122.865 21.4102C121.407 21.4102 120.225 22.5921 120.225 24.0502C120.225 25.5082 121.407 26.6902 122.865 26.6902Z" fill="#3B82F6"/>
<path d="M98.935 26.6599C99.4599 26.6618 99.9737 26.5079 100.411 26.2174C100.848 25.927 101.19 25.5132 101.391 25.0286C101.593 24.544 101.647 24.0103 101.545 23.4953C101.443 22.9803 101.19 22.5073 100.819 22.1361C100.448 21.7649 99.9745 21.5122 99.4595 21.4103C98.9445 21.3084 98.4109 21.3617 97.9263 21.5635C97.4417 21.7653 97.0279 22.1065 96.7374 22.5438C96.447 22.9812 96.293 23.4949 96.2949 24.0199C96.2976 24.7192 96.5767 25.3892 97.0712 25.8837C97.5657 26.3783 98.2356 26.6572 98.935 26.6599V26.6599Z" fill="#3B82F6"/>
<path d="M75.0045 26.6599C75.5291 26.6599 76.0418 26.5042 76.4778 26.2125C76.9138 25.9209 77.2535 25.5065 77.4538 25.0217C77.654 24.5369 77.7059 24.0035 77.6028 23.4892C77.4997 22.9749 77.2464 22.5027 76.8748 22.1325C76.5032 21.7623 76.03 21.5107 75.5153 21.4096C75.0006 21.3084 74.4675 21.3624 73.9834 21.5645C73.4994 21.7666 73.0863 22.1078 72.7963 22.5449C72.5063 22.982 72.3525 23.4953 72.3545 24.0199C72.3545 24.3674 72.4231 24.7115 72.5564 25.0325C72.6897 25.3534 72.885 25.6449 73.1312 25.8902C73.3775 26.1354 73.6697 26.3297 73.9911 26.4618C74.3126 26.5939 74.657 26.6612 75.0045 26.6599V26.6599Z" fill="#3B82F6"/>
<path d="M51.0648 26.6902C52.5228 26.6902 53.7048 25.5082 53.7048 24.0502C53.7048 22.5921 52.5228 21.4102 51.0648 21.4102C49.6068 21.4102 48.4248 22.5921 48.4248 24.0502C48.4248 25.5082 49.6068 26.6902 51.0648 26.6902Z" fill="#3B82F6"/>
<path d="M28.1487 26.3892C29.4972 25.8348 30.1409 24.2922 29.5865 22.9437C29.0321 21.5952 27.4894 20.9514 26.1409 21.5059C24.7924 22.0603 24.1487 23.603 24.7031 24.9515C25.2576 26.3 26.8002 26.9437 28.1487 26.3892Z" fill="#3B82F6"/>
<path d="M3.20473 26.6599C3.72928 26.6599 4.24199 26.5042 4.678 26.2125C5.114 25.9209 5.45367 25.5065 5.65395 25.0217C5.85422 24.5369 5.90618 24.0035 5.80312 23.4892C5.70006 22.9749 5.44658 22.5027 5.07497 22.1325C4.70336 21.7623 4.2303 21.5107 3.7156 21.4096C3.20089 21.3084 2.66778 21.3624 2.18373 21.5645C1.69969 21.7666 1.28646 22.1078 0.996479 22.5449C0.706499 22.982 0.552727 23.4953 0.554706 24.0199C0.554704 24.3674 0.623313 24.7115 0.756611 25.0325C0.889908 25.3534 1.08535 25.6449 1.33156 25.8902C1.57777 26.1354 1.86997 26.3297 2.19143 26.4618C2.51288 26.5939 2.8572 26.6612 3.20473 26.6599V26.6599Z" fill="#3B82F6"/>
<path d="M146.805 5.28C148.263 5.28 149.445 4.09803 149.445 2.64C149.445 1.18197 148.263 0 146.805 0C145.347 0 144.165 1.18197 144.165 2.64C144.165 4.09803 145.347 5.28 146.805 5.28Z" fill="#3B82F6"/>
<path d="M122.865 5.28C124.323 5.28 125.505 4.09803 125.505 2.64C125.505 1.18197 124.323 0 122.865 0C121.407 0 120.225 1.18197 120.225 2.64C120.225 4.09803 121.407 5.28 122.865 5.28Z" fill="#3B82F6"/>
<path d="M98.9349 5.29024C99.4595 5.29222 99.9728 5.13851 100.41 4.84853C100.847 4.55855 101.188 4.14532 101.39 3.66127C101.592 3.17723 101.646 2.64412 101.545 2.12941C101.444 1.61471 101.193 1.14159 100.822 0.769978C100.452 0.398368 99.98 0.144953 99.4657 0.0418894C98.9514 -0.0611745 98.418 -0.00927669 97.9332 0.190998C97.4484 0.391273 97.0339 0.730946 96.7423 1.16695C96.4507 1.60295 96.2949 2.11567 96.2949 2.64022C96.2949 3.34131 96.5728 4.01383 97.0676 4.51052C97.5624 5.0072 98.2338 5.2876 98.9349 5.29024V5.29024Z" fill="#3B82F6"/>
<path d="M75.0045 5.29023C75.5286 5.29023 76.041 5.13483 76.4768 4.84364C76.9126 4.55245 77.2522 4.13859 77.4528 3.65437C77.6533 3.17015 77.7058 2.63729 77.6035 2.12324C77.5013 1.60919 77.2489 1.13698 76.8783 0.76637C76.5077 0.395761 76.0355 0.143401 75.5215 0.04115C75.0074 -0.0611008 74.4746 -0.00860433 73.9904 0.191968C73.5061 0.39254 73.0923 0.732191 72.8011 1.16798C72.51 1.60377 72.3545 2.11609 72.3545 2.64021C72.3545 2.98821 72.423 3.33286 72.5562 3.65437C72.6893 3.97588 72.8845 4.26798 73.1306 4.51405C73.3767 4.76013 73.6688 4.95534 73.9904 5.08851C74.3119 5.22169 74.6565 5.29023 75.0045 5.29023V5.29023Z" fill="#3B82F6"/>
<path d="M51.0648 5.28C52.5228 5.28 53.7048 4.09803 53.7048 2.64C53.7048 1.18197 52.5228 0 51.0648 0C49.6068 0 48.4248 1.18197 48.4248 2.64C48.4248 4.09803 49.6068 5.28 51.0648 5.28Z" fill="#3B82F6"/>
<path d="M28.1467 4.97757C29.4952 4.42314 30.139 2.88048 29.5845 1.53198C29.0301 0.183476 27.4875 -0.460193 26.139 0.0942435C24.7905 0.64868 24.1467 2.19128 24.7011 3.53978C25.2556 4.88828 26.7982 5.53201 28.1467 4.97757Z" fill="#3B82F6"/>
<path d="M3.20471 5.29023C3.72883 5.29023 4.24121 5.13483 4.677 4.84364C5.11279 4.55245 5.45238 4.13859 5.65295 3.65437C5.85353 3.17015 5.90608 2.63729 5.80383 2.12324C5.70158 1.60919 5.44922 1.13698 5.07861 0.76637C4.708 0.395761 4.23573 0.143401 3.72168 0.04115C3.20763 -0.0611008 2.6749 -0.00860433 2.19067 0.191968C1.70645 0.39254 1.29253 0.732191 1.00134 1.16798C0.710157 1.60377 0.554688 2.11609 0.554688 2.64021C0.554688 3.34303 0.833961 4.01708 1.33093 4.51405C1.8279 5.01102 2.50189 5.29023 3.20471 5.29023V5.29023Z" fill="#3B82F6"/>
</g>
<defs>
<clipPath id="clip0_455_1127">
<rect width="148.89" height="90.91" fill="white" transform="translate(0.554688)"/>
</clipPath>
</defs>
</svg>
