<svg width="149" height="92" viewBox="0 0 149 92" fill="none" xmlns="http://www.w3.org/2000/svg">
<g clip-path="url(#clip0_369_1772)">
<path d="M146.305 91.4575C147.763 91.4575 148.945 90.2755 148.945 88.8175C148.945 87.3595 147.763 86.1775 146.305 86.1775C144.847 86.1775 143.665 87.3595 143.665 88.8175C143.665 90.2755 144.847 91.4575 146.305 91.4575Z" fill="#AE7D3B"/>
<path d="M122.365 91.4575C123.823 91.4575 125.005 90.2755 125.005 88.8175C125.005 87.3595 123.823 86.1775 122.365 86.1775C120.907 86.1775 119.725 87.3595 119.725 88.8175C119.725 90.2755 120.907 91.4575 122.365 91.4575Z" fill="#AE7D3B"/>
<path d="M98.4349 91.458C98.9595 91.4599 99.4728 91.3062 99.9099 91.0163C100.347 90.7263 100.688 90.313 100.89 89.829C101.092 89.345 101.146 88.8118 101.045 88.2971C100.944 87.7824 100.693 87.3093 100.322 86.9377C99.9522 86.5661 99.48 86.3127 98.9657 86.2096C98.4514 86.1066 97.918 86.1584 97.4332 86.3587C96.9484 86.559 96.5339 86.8987 96.2423 87.3347C95.9507 87.7707 95.7949 88.2834 95.7949 88.8079C95.7949 89.509 96.0728 90.1816 96.5676 90.6782C97.0624 91.1749 97.7338 91.4553 98.4349 91.458Z" fill="#AE7D3B"/>
<path d="M74.505 91.458C75.0291 91.458 75.5415 91.3026 75.9773 91.0114C76.4131 90.7202 76.7527 90.3063 76.9532 89.8221C77.1538 89.3379 77.2063 88.805 77.104 88.291C77.0018 87.7769 76.7494 87.3048 76.3788 86.9342C76.0082 86.5635 75.536 86.3111 75.022 86.2089C74.5079 86.1066 73.9751 86.1591 73.4908 86.3597C73.0066 86.5603 72.5928 86.8999 72.3016 87.3357C72.0105 87.7715 71.855 88.2838 71.855 88.8079C71.855 89.1559 71.9235 89.5006 72.0566 89.8221C72.1898 90.1436 72.385 90.4357 72.6311 90.6818C72.8772 90.9279 73.1693 91.1231 73.4908 91.2563C73.8124 91.3895 74.157 91.458 74.505 91.458Z" fill="#AE7D3B"/>
<path d="M50.5653 91.4575C52.0233 91.4575 53.2053 90.2755 53.2053 88.8175C53.2053 87.3595 52.0233 86.1775 50.5653 86.1775C49.1073 86.1775 47.9253 87.3595 47.9253 88.8175C47.9253 90.2755 49.1073 91.4575 50.5653 91.4575Z" fill="#AE7D3B"/>
<path d="M27.6453 91.1429C28.9938 90.5884 29.6375 89.0458 29.0831 87.6973C28.5286 86.3488 26.986 85.7051 25.6375 86.2595C24.289 86.814 23.6452 88.3566 24.1997 89.7051C24.7541 91.0536 26.2968 91.6973 27.6453 91.1429Z" fill="#AE7D3B"/>
<path d="M2.70534 86.2078C2.18038 86.2058 1.66671 86.3598 1.22939 86.6502C0.792071 86.9407 0.450854 87.3544 0.249043 87.8391C0.0472329 88.3237 -0.00608661 88.8574 0.0958452 89.3723C0.197777 89.8873 0.450343 90.3604 0.821553 90.7316C1.19276 91.1028 1.66583 91.3554 2.18081 91.4573C2.69579 91.5592 3.2295 91.5059 3.71413 91.3041C4.19876 91.1023 4.61255 90.7611 4.90297 90.3238C5.1934 89.8865 5.34733 89.3728 5.34536 88.8478C5.34272 88.1484 5.06376 87.4784 4.56923 86.9839C4.07471 86.4894 3.4047 86.2104 2.70534 86.2078Z" fill="#AE7D3B"/>
<path d="M146.305 70.0473C147.763 70.0473 148.945 68.8654 148.945 67.4073C148.945 65.9493 147.763 64.7673 146.305 64.7673C144.847 64.7673 143.665 65.9493 143.665 67.4073C143.665 68.8654 144.847 70.0473 146.305 70.0473Z" fill="#AE7D3B"/>
<path d="M122.365 70.0473C123.823 70.0473 125.005 68.8654 125.005 67.4073C125.005 65.9493 123.823 64.7673 122.365 64.7673C120.907 64.7673 119.725 65.9493 119.725 67.4073C119.725 68.8654 120.907 70.0473 122.365 70.0473Z" fill="#AE7D3B"/>
<path d="M98.435 70.0478C98.9599 70.0498 99.4737 69.8958 99.911 69.6054C100.348 69.3149 100.69 68.9012 100.891 68.4165C101.093 67.9319 101.147 67.3982 101.045 66.8833C100.943 66.3683 100.69 65.8952 100.319 65.5239C99.9477 65.1527 99.4745 64.9002 98.9595 64.7982C98.4445 64.6963 97.9109 64.7496 97.4263 64.9514C96.9417 65.1532 96.5279 65.4945 96.2374 65.9318C95.947 66.3691 95.793 66.8828 95.7949 67.4078C95.7976 68.1072 96.0767 68.7771 96.5712 69.2716C97.0657 69.7662 97.7356 70.0452 98.435 70.0478Z" fill="#AE7D3B"/>
<path d="M74.505 70.0478C75.0296 70.0478 75.5423 69.8921 75.9783 69.6005C76.4143 69.3089 76.754 68.8944 76.9542 68.4096C77.1545 67.9248 77.2064 67.3914 77.1033 66.8771C77.0002 66.3628 76.7469 65.8906 76.3753 65.5204C76.0037 65.1502 75.5305 64.8986 75.0158 64.7975C74.5011 64.6964 73.968 64.7503 73.4839 64.9524C72.9999 65.1545 72.5868 65.4957 72.2968 65.9328C72.0068 66.3699 71.853 66.8833 71.855 67.4078C71.855 67.7553 71.9236 68.0994 72.0569 68.4204C72.1902 68.7413 72.3855 69.0328 72.6317 69.2781C72.8779 69.5234 73.1701 69.7176 73.4916 69.8497C73.8131 69.9818 74.1575 70.0491 74.505 70.0478Z" fill="#AE7D3B"/>
<path d="M50.5653 70.0473C52.0233 70.0473 53.2053 68.8654 53.2053 67.4073C53.2053 65.9493 52.0233 64.7673 50.5653 64.7673C49.1073 64.7673 47.9253 65.9493 47.9253 67.4073C47.9253 68.8654 49.1073 70.0473 50.5653 70.0473Z" fill="#AE7D3B"/>
<path d="M27.6477 69.7406C28.9962 69.1861 29.64 67.6435 29.0855 66.295C28.5311 64.9465 26.9884 64.3027 25.6399 64.8572C24.2914 65.4116 23.6477 66.9543 24.2021 68.3028C24.7566 69.6513 26.2992 70.295 27.6477 69.7406Z" fill="#AE7D3B"/>
<path d="M2.70522 70.0478C3.22976 70.0478 3.74248 69.8921 4.17849 69.6005C4.61449 69.3089 4.95416 68.8944 5.15444 68.4096C5.35471 67.9248 5.40667 67.3914 5.30361 66.8771C5.20054 66.3628 4.94707 65.8906 4.57546 65.5204C4.20385 65.1502 3.73079 64.8986 3.21608 64.7975C2.70138 64.6964 2.16827 64.7503 1.68422 64.9524C1.20018 65.1545 0.786947 65.4957 0.496967 65.9328C0.206987 66.3699 0.0532152 66.8833 0.0551947 67.4078C0.0551922 67.7553 0.123802 68.0994 0.257099 68.4204C0.390396 68.7413 0.585843 69.0328 0.83205 69.2781C1.07826 69.5234 1.37046 69.7176 1.69191 69.8497C2.01337 69.9818 2.35769 70.0491 2.70522 70.0478Z" fill="#AE7D3B"/>
<path d="M146.305 48.6372C147.763 48.6372 148.945 47.4552 148.945 45.9972C148.945 44.5391 147.763 43.3572 146.305 43.3572C144.847 43.3572 143.665 44.5391 143.665 45.9972C143.665 47.4552 144.847 48.6372 146.305 48.6372Z" fill="#AE7D3B"/>
<path d="M122.365 48.6372C123.823 48.6372 125.005 47.4552 125.005 45.9972C125.005 44.5391 123.823 43.3572 122.365 43.3572C120.907 43.3572 119.725 44.5391 119.725 45.9972C119.725 47.4552 120.907 48.6372 122.365 48.6372Z" fill="#AE7D3B"/>
<path d="M98.4349 48.6474C98.9595 48.6494 99.4728 48.4957 99.9099 48.2057C100.347 47.9157 100.688 47.5025 100.89 47.0185C101.092 46.5344 101.146 46.0013 101.045 45.4866C100.944 44.9719 100.693 44.4988 100.322 44.1272C99.9522 43.7555 99.48 43.5021 98.9657 43.3991C98.4514 43.296 97.918 43.3479 97.4332 43.5482C96.9484 43.7485 96.5339 44.0881 96.2423 44.5241C95.9507 44.9601 95.7949 45.4728 95.7949 45.9974C95.7949 46.6985 96.0728 47.371 96.5676 47.8677C97.0624 48.3644 97.7338 48.6448 98.4349 48.6474Z" fill="#AE7D3B"/>
<path d="M74.505 48.6474C75.0291 48.6474 75.5415 48.492 75.9773 48.2008C76.4131 47.9096 76.7527 47.4958 76.9532 47.0115C77.1538 46.5273 77.2063 45.9945 77.104 45.4804C77.0018 44.9664 76.7494 44.4942 76.3788 44.1235C76.0082 43.7529 75.536 43.5006 75.022 43.3983C74.5079 43.2961 73.9751 43.3486 73.4908 43.5491C73.0066 43.7497 72.5928 44.0894 72.3016 44.5252C72.0105 44.9609 71.855 45.4733 71.855 45.9974C71.855 46.3454 71.9235 46.69 72.0566 47.0115C72.1898 47.3331 72.385 47.6252 72.6311 47.8712C72.8772 48.1173 73.1693 48.3125 73.4908 48.4457C73.8124 48.5789 74.157 48.6474 74.505 48.6474Z" fill="#AE7D3B"/>
<path d="M50.5653 48.6372C52.0233 48.6372 53.2053 47.4552 53.2053 45.9972C53.2053 44.5391 52.0233 43.3572 50.5653 43.3572C49.1073 43.3572 47.9253 44.5391 47.9253 45.9972C47.9253 47.4552 49.1073 48.6372 50.5653 48.6372Z" fill="#AE7D3B"/>
<path d="M27.6462 48.3391C28.9947 47.7847 29.6385 46.2421 29.084 44.8936C28.5296 43.545 26.987 42.9014 25.6385 43.4558C24.29 44.0103 23.6462 45.5529 24.2007 46.9014C24.7551 48.2499 26.2977 48.8936 27.6462 48.3391Z" fill="#AE7D3B"/>
<path d="M2.7052 48.6474C3.22932 48.6474 3.7417 48.492 4.17749 48.2008C4.61328 47.9096 4.95287 47.4958 5.15344 47.0115C5.35401 46.5273 5.40657 45.9945 5.30432 45.4804C5.20207 44.9664 4.94971 44.4942 4.5791 44.1235C4.20849 43.7529 3.73622 43.5006 3.22217 43.3983C2.70812 43.2961 2.17539 43.3486 1.69116 43.5491C1.20694 43.7497 0.793017 44.0894 0.501831 44.5252C0.210645 44.9609 0.0551758 45.4733 0.0551758 45.9974C0.0551758 46.7002 0.334449 47.3743 0.831421 47.8712C1.32839 48.3682 2.00238 48.6474 2.7052 48.6474Z" fill="#AE7D3B"/>
<path d="M146.305 27.2378C147.763 27.2378 148.945 26.0558 148.945 24.5978C148.945 23.1397 147.763 21.9578 146.305 21.9578C144.847 21.9578 143.665 23.1397 143.665 24.5978C143.665 26.0558 144.847 27.2378 146.305 27.2378Z" fill="#AE7D3B"/>
<path d="M122.365 27.2378C123.823 27.2378 125.005 26.0558 125.005 24.5978C125.005 23.1397 123.823 21.9578 122.365 21.9578C120.907 21.9578 119.725 23.1397 119.725 24.5978C119.725 26.0558 120.907 27.2378 122.365 27.2378Z" fill="#AE7D3B"/>
<path d="M98.435 27.208C98.9599 27.2099 99.4737 27.0559 99.911 26.7655C100.348 26.4751 100.69 26.0613 100.891 25.5767C101.093 25.092 101.147 24.5584 101.045 24.0434C100.943 23.5284 100.69 23.0554 100.319 22.6842C99.9477 22.313 99.4745 22.0603 98.9595 21.9584C98.4445 21.8565 97.9109 21.9098 97.4263 22.1116C96.9417 22.3134 96.5279 22.6546 96.2374 23.0919C95.947 23.5293 95.793 24.043 95.7949 24.568C95.7976 25.2673 96.0767 25.9373 96.5712 26.4318C97.0657 26.9264 97.7356 27.2053 98.435 27.208Z" fill="#AE7D3B"/>
<path d="M74.505 27.208C75.0296 27.208 75.5423 27.0523 75.9783 26.7606C76.4143 26.469 76.754 26.0546 76.9542 25.5698C77.1545 25.085 77.2064 24.5516 77.1033 24.0373C77.0002 23.523 76.7469 23.0508 76.3753 22.6806C76.0037 22.3104 75.5305 22.0588 75.0158 21.9577C74.5011 21.8565 73.968 21.9105 73.4839 22.1126C72.9999 22.3147 72.5868 22.6559 72.2968 23.093C72.0068 23.5301 71.853 24.0434 71.855 24.568C71.855 24.9155 71.9236 25.2596 72.0569 25.5806C72.1902 25.9015 72.3855 26.193 72.6317 26.4383C72.8779 26.6835 73.1701 26.8778 73.4916 27.0099C73.8131 27.142 74.1575 27.2093 74.505 27.208Z" fill="#AE7D3B"/>
<path d="M50.5653 27.2378C52.0233 27.2378 53.2053 26.0558 53.2053 24.5978C53.2053 23.1397 52.0233 21.9578 50.5653 21.9578C49.1073 21.9578 47.9253 23.1397 47.9253 24.5978C47.9253 26.0558 49.1073 27.2378 50.5653 27.2378Z" fill="#AE7D3B"/>
<path d="M27.6487 26.9369C28.9972 26.3824 29.6409 24.8398 29.0865 23.4913C28.5321 22.1428 26.9894 21.499 25.6409 22.0535C24.2924 22.6079 23.6487 24.1506 24.2031 25.4991C24.7576 26.8476 26.3002 27.4913 27.6487 26.9369Z" fill="#AE7D3B"/>
<path d="M2.70522 27.208C3.22976 27.208 3.74248 27.0523 4.17849 26.7606C4.61449 26.469 4.95416 26.0546 5.15444 25.5698C5.35471 25.085 5.40667 24.5516 5.30361 24.0373C5.20054 23.523 4.94707 23.0508 4.57546 22.6806C4.20385 22.3104 3.73079 22.0588 3.21608 21.9577C2.70138 21.8565 2.16827 21.9105 1.68422 22.1126C1.20018 22.3147 0.786947 22.6559 0.496967 23.093C0.206987 23.5301 0.0532152 24.0434 0.0551947 24.568C0.0551922 24.9155 0.123802 25.2596 0.257099 25.5806C0.390396 25.9015 0.585843 26.193 0.83205 26.4383C1.07826 26.6835 1.37046 26.8778 1.69191 27.0099C2.01337 27.142 2.35769 27.2093 2.70522 27.208Z" fill="#AE7D3B"/>
<path d="M146.305 5.82761C147.763 5.82761 148.945 4.64564 148.945 3.18761C148.945 1.72958 147.763 0.547607 146.305 0.547607C144.847 0.547607 143.665 1.72958 143.665 3.18761C143.665 4.64564 144.847 5.82761 146.305 5.82761Z" fill="#AE7D3B"/>
<path d="M122.365 5.82761C123.823 5.82761 125.005 4.64564 125.005 3.18761C125.005 1.72958 123.823 0.547607 122.365 0.547607C120.907 0.547607 119.725 1.72958 119.725 3.18761C119.725 4.64564 120.907 5.82761 122.365 5.82761Z" fill="#AE7D3B"/>
<path d="M98.4349 5.83785C98.9595 5.83983 99.4728 5.68612 99.9099 5.39614C100.347 5.10616 100.688 4.69293 100.89 4.20888C101.092 3.72484 101.146 3.19173 101.045 2.67702C100.944 2.16231 100.693 1.6892 100.322 1.31759C99.9522 0.945975 99.48 0.692561 98.9657 0.589497C98.4514 0.486433 97.918 0.538331 97.4332 0.738606C96.9484 0.938881 96.5339 1.27855 96.2423 1.71456C95.9507 2.15056 95.7949 2.66328 95.7949 3.18782C95.7949 3.88892 96.0728 4.56144 96.5676 5.05813C97.0624 5.55481 97.7338 5.8352 98.4349 5.83785Z" fill="#AE7D3B"/>
<path d="M74.505 5.83784C75.0291 5.83784 75.5415 5.68243 75.9773 5.39125C76.4131 5.10006 76.7527 4.6862 76.9532 4.20198C77.1538 3.71775 77.2063 3.1849 77.104 2.67085C77.0018 2.1568 76.7494 1.68459 76.3788 1.31398C76.0082 0.943368 75.536 0.691008 75.022 0.588757C74.5079 0.486507 73.9751 0.539003 73.4908 0.739575C73.0066 0.940148 72.5928 1.2798 72.3016 1.71559C72.0105 2.15138 71.855 2.6637 71.855 3.18782C71.855 3.53582 71.9235 3.88047 72.0566 4.20198C72.1898 4.52349 72.385 4.81558 72.6311 5.06166C72.8772 5.30773 73.1693 5.50295 73.4908 5.63612C73.8124 5.7693 74.157 5.83784 74.505 5.83784Z" fill="#AE7D3B"/>
<path d="M50.5653 5.82761C52.0233 5.82761 53.2053 4.64564 53.2053 3.18761C53.2053 1.72958 52.0233 0.547607 50.5653 0.547607C49.1073 0.547607 47.9253 1.72958 47.9253 3.18761C47.9253 4.64564 49.1073 5.82761 50.5653 5.82761Z" fill="#AE7D3B"/>
<path d="M27.6472 5.52469C28.9957 4.97025 29.6395 3.4276 29.085 2.0791C28.5306 0.730595 26.9879 0.0869266 25.6394 0.641363C24.2909 1.1958 23.6472 2.7384 24.2016 4.0869C24.7561 5.4354 26.2987 6.07913 27.6472 5.52469Z" fill="#AE7D3B"/>
<path d="M2.7052 5.83784C3.22932 5.83784 3.7417 5.68243 4.17749 5.39125C4.61328 5.10006 4.95287 4.6862 5.15344 4.20198C5.35401 3.71775 5.40657 3.1849 5.30432 2.67085C5.20207 2.1568 4.94971 1.68459 4.5791 1.31398C4.20849 0.943368 3.73622 0.691008 3.22217 0.588757C2.70812 0.486507 2.17539 0.539003 1.69116 0.739575C1.20694 0.940148 0.793017 1.2798 0.501831 1.71559C0.210645 2.15138 0.0551758 2.6637 0.0551758 3.18782C0.0551758 3.89064 0.334449 4.56469 0.831421 5.06166C1.32839 5.55863 2.00238 5.83784 2.7052 5.83784Z" fill="#AE7D3B"/>
</g>
<defs>
<clipPath id="clip0_369_1772">
<rect width="148.89" height="90.91" fill="white" transform="translate(0.0551758 0.547607)"/>
</clipPath>
</defs>
</svg>
