<svg width="49" height="48" viewBox="0 0 49 48" fill="none" xmlns="http://www.w3.org/2000/svg">
<ellipse opacity="0.5" cx="24.0948" cy="24" rx="23.9601" ry="24" fill="white"/>
<path fill-rule="evenodd" clip-rule="evenodd" d="M26.8836 18.7929C27.2735 18.4024 27.9056 18.4024 28.2955 18.7929L32.788 23.2929C33.1779 23.6834 33.1779 24.3166 32.788 24.7071L28.2955 29.2071C27.9056 29.5976 27.2735 29.5976 26.8836 29.2071C26.4937 28.8166 26.4937 28.1834 26.8836 27.7929L29.6719 25H16.1087C15.5573 25 15.1104 24.5523 15.1104 24C15.1104 23.4477 15.5573 23 16.1087 23H29.6719L26.8836 20.2071C26.4937 19.8166 26.4937 19.1834 26.8836 18.7929Z" fill="#424551"/>
</svg>
